<svg width="312" height="58" viewBox="0 0 312 58" fill="none" xmlns="http://www.w3.org/2000/svg">
<path d="M24.1777 34.1333L47.3599 57.363H128L45.9851 12.0889L24.1777 34.1333ZM22.5185 35.7926L0.94812 57.363H44.0888L22.5185 35.7926ZM21.8073 33.4222L44.0888 10.9037L24.1777 0L3.08145 52.3852L21.8073 33.4222Z" fill="#FF9632"/>
<path d="M141.456 16.504V43H145.632V35.008L149.7 30.04L157.188 43H161.832L152.256 26.728L160.464 16.504H155.82L145.74 29.032H145.632V16.504H141.456ZM165.327 16.504V43H180.699V39.472H169.503V16.504H165.327ZM197.606 35.44L199.838 43H204.266L195.482 16.504H190.658L181.874 43H186.122L188.39 35.44H197.606ZM196.598 32.164H189.362L190.442 28.6C190.874 27.16 191.294 25.708 191.702 24.244C192.11 22.78 192.506 21.292 192.89 19.78H193.034C193.442 21.292 193.85 22.78 194.258 24.244C194.666 25.708 195.098 27.16 195.554 28.6L196.598 32.164ZM211.555 32.956V43H215.731V32.956L223.723 16.504H219.367L216.271 23.524C215.863 24.532 215.443 25.504 215.011 26.44C214.603 27.376 214.183 28.348 213.751 29.356H213.607C213.151 28.348 212.719 27.376 212.311 26.44C211.927 25.504 211.531 24.532 211.123 23.524L208.063 16.504H203.599L211.555 32.956ZM230.273 43.468C231.497 43.468 232.577 43.312 233.513 43C234.449 42.688 235.229 42.256 235.853 41.704C236.501 41.152 236.981 40.516 237.293 39.796C237.629 39.052 237.797 38.272 237.797 37.456C237.797 36.52 237.617 35.728 237.257 35.08C236.921 34.432 236.477 33.892 235.925 33.46C235.373 33.004 234.749 32.62 234.053 32.308C233.357 31.996 232.661 31.708 231.965 31.444C231.437 31.252 230.909 31.06 230.381 30.868C229.877 30.676 229.433 30.46 229.049 30.22C228.665 29.98 228.353 29.716 228.113 29.428C227.873 29.116 227.753 28.744 227.753 28.312C227.753 27.616 228.005 27.04 228.509 26.584C229.037 26.104 229.841 25.864 230.921 25.864C231.761 25.864 232.529 26.032 233.225 26.368C233.945 26.68 234.653 27.088 235.349 27.592L237.293 25.036C236.477 24.412 235.541 23.872 234.485 23.416C233.429 22.936 232.217 22.696 230.849 22.696C229.769 22.696 228.785 22.84 227.897 23.128C227.033 23.416 226.301 23.824 225.701 24.352C225.101 24.88 224.633 25.492 224.297 26.188C223.985 26.884 223.829 27.652 223.829 28.492C223.829 29.332 223.997 30.064 224.333 30.688C224.693 31.288 225.137 31.816 225.665 32.272C226.217 32.704 226.829 33.076 227.501 33.388C228.173 33.7 228.833 33.988 229.481 34.252C230.033 34.468 230.561 34.684 231.065 34.9C231.593 35.116 232.061 35.356 232.469 35.62C232.901 35.86 233.237 36.148 233.477 36.484C233.741 36.82 233.873 37.216 233.873 37.672C233.873 38.44 233.597 39.076 233.045 39.58C232.493 40.084 231.605 40.336 230.381 40.336C229.301 40.336 228.317 40.132 227.429 39.724C226.541 39.316 225.653 38.764 224.765 38.068L222.821 40.732C223.781 41.524 224.921 42.184 226.241 42.712C227.561 43.216 228.905 43.468 230.273 43.468ZM240.046 23.2L245.41 43H250.198L252.61 33.244C252.874 32.308 253.102 31.372 253.294 30.436C253.486 29.5 253.678 28.516 253.87 27.484H254.05C254.266 28.516 254.47 29.5 254.662 30.436C254.854 31.348 255.07 32.272 255.31 33.208L257.83 43H262.798L267.91 23.2H264.022L261.466 33.928C261.25 34.888 261.046 35.836 260.854 36.772C260.686 37.684 260.506 38.608 260.314 39.544H260.17C259.93 38.608 259.702 37.684 259.486 36.772C259.294 35.836 259.078 34.888 258.838 33.928L255.994 23.2H252.142L249.37 33.928C249.13 34.864 248.902 35.8 248.686 36.736C248.494 37.672 248.29 38.608 248.074 39.544H247.93C247.738 38.608 247.558 37.684 247.39 36.772C247.222 35.836 247.042 34.888 246.85 33.928L244.222 23.2H240.046ZM276.276 43.468C277.5 43.468 278.628 43.228 279.66 42.748C280.692 42.244 281.664 41.608 282.576 40.84H282.684L283.044 43H286.428V31.084C286.428 28.396 285.84 26.332 284.664 24.892C283.512 23.428 281.7 22.696 279.228 22.696C277.644 22.696 276.18 22.948 274.836 23.452C273.516 23.932 272.34 24.496 271.308 25.144L272.532 28.168C273.372 27.616 274.308 27.136 275.34 26.728C276.372 26.296 277.428 26.08 278.508 26.08C279.228 26.08 279.828 26.2 280.308 26.44C280.812 26.656 281.208 26.968 281.496 27.376C281.784 27.76 281.988 28.216 282.108 28.744C282.228 29.272 282.288 29.824 282.288 30.4C280.248 30.544 278.472 30.736 276.96 30.976C275.472 31.192 274.224 31.576 273.216 32.128C272.184 32.752 271.464 33.568 271.056 34.576C270.648 35.584 270.444 36.64 270.444 37.744C270.444 38.608 270.588 39.4 270.876 40.12C271.164 40.816 271.56 41.416 272.064 41.92C272.592 42.424 273.204 42.808 273.9 43.072C274.62 43.336 275.412 43.468 276.276 43.468ZM277.536 40.192C276.648 40.192 275.904 39.988 275.304 39.58C274.728 39.172 274.44 38.464 274.44 37.456C274.44 37.048 274.452 36.616 274.476 36.16C274.524 35.68 274.812 35.2 275.34 34.72C275.652 34.432 276.012 34.216 276.42 34.072C276.828 33.904 277.308 33.772 277.86 33.676C278.412 33.556 279.048 33.46 279.768 33.388C280.488 33.316 281.328 33.22 282.288 33.1V37.996C281.472 38.74 280.692 39.292 279.948 39.652C279.204 40.012 278.4 40.192 277.536 40.192ZM292.339 23.2V51.028H296.443V44.62L296.335 41.236C297.175 41.956 298.027 42.508 298.891 42.892C299.779 43.276 300.667 43.468 301.555 43.468C302.683 43.468 303.751 43.228 304.759 42.748C305.791 42.268 306.703 41.572 307.495 40.66C308.287 39.748 308.911 38.632 309.367 37.312C309.847 35.968 310.087 34.456 310.087 32.776C310.087 31.264 309.907 29.884 309.547 28.636C309.211 27.388 308.707 26.332 308.035 25.468C307.387 24.58 306.571 23.896 305.587 23.416C304.627 22.936 303.511 22.696 302.239 22.696C301.135 22.696 300.055 22.96 298.999 23.488C297.967 24.016 297.019 24.64 296.155 25.36H296.047L295.723 23.2H292.339ZM300.763 40.048C300.139 40.048 299.455 39.916 298.711 39.652C297.967 39.388 297.211 38.92 296.443 38.248V28.564C297.283 27.748 298.087 27.148 298.855 26.764C299.623 26.356 300.391 26.152 301.159 26.152C302.815 26.152 304.003 26.74 304.723 27.916C305.443 29.092 305.803 30.736 305.803 32.848C305.803 35.176 305.323 36.964 304.363 38.212C303.403 39.436 302.203 40.048 300.763 40.048Z" fill="white"/>
</svg>
