<svg width="166" height="31" viewBox="0 0 166 31" fill="none" xmlns="http://www.w3.org/2000/svg">
<g clip-path="url(#clip0_54:548)">
<path d="M15.5 19.17C14.7742 19.17 14.0646 18.9548 13.4611 18.5515C12.8575 18.1482 12.3871 17.5751 12.1094 16.9045C11.8316 16.2339 11.7589 15.4959 11.9005 14.784C12.0421 14.0721 12.3917 13.4182 12.9049 12.9049C13.4182 12.3917 14.0721 12.0421 14.784 11.9005C15.4959 11.7589 16.2338 11.8316 16.9044 12.1094C17.5751 12.3871 18.1482 12.8575 18.5515 13.4611C18.9548 14.0646 19.17 14.7742 19.17 15.5C19.17 16.4734 18.7834 17.4068 18.0951 18.0951C17.4068 18.7834 16.4734 19.17 15.5 19.17ZM15.5 12.33C14.873 12.33 14.2601 12.5159 13.7388 12.8643C13.2175 13.2126 12.8112 13.7077 12.5713 14.2869C12.3314 14.8662 12.2686 15.5035 12.3909 16.1185C12.5132 16.7334 12.8152 17.2982 13.2585 17.7415C13.7018 18.1849 14.2667 18.4868 14.8816 18.6091C15.4965 18.7314 16.1339 18.6686 16.7131 18.4287C17.2924 18.1888 17.7874 17.7825 18.1358 17.2612C18.4841 16.7399 18.67 16.127 18.67 15.5C18.67 14.6593 18.336 13.853 17.7415 13.2585C17.147 12.664 16.3408 12.33 15.5 12.33ZM15.5 20.86C14.4399 20.86 13.4036 20.5457 12.5222 19.9567C11.6407 19.3677 10.9537 18.5306 10.548 17.5512C10.1423 16.5718 10.0362 15.4941 10.243 14.4543C10.4498 13.4146 10.9603 12.4595 11.7099 11.7099C12.4595 10.9603 13.4146 10.4498 14.4543 10.243C15.4941 10.0362 16.5718 10.1423 17.5512 10.548C18.5306 10.9537 19.3677 11.6407 19.9567 12.5222C20.5456 13.4036 20.86 14.4399 20.86 15.5C20.8547 16.92 20.2883 18.2802 19.2843 19.2843C18.2802 20.2883 16.92 20.8547 15.5 20.86ZM15.5 10.71C14.5522 10.708 13.6251 10.9873 12.8361 11.5124C12.0471 12.0375 11.4316 12.7849 11.0675 13.66C10.7034 14.5351 10.6071 15.4985 10.7908 16.4283C10.9745 17.3582 11.4299 18.2126 12.0994 18.8835C12.7689 19.5544 13.6224 20.0116 14.5518 20.1972C15.4813 20.3829 16.4449 20.2886 17.3207 19.9263C18.1966 19.5641 18.9453 18.9502 19.472 18.1622C19.9988 17.3743 20.28 16.4478 20.28 15.5C20.28 14.2314 19.7767 13.0145 18.8806 12.1165C17.9844 11.2185 16.7687 10.7127 15.5 10.71ZM15.5 22.55C14.1035 22.55 12.7385 22.1352 11.5781 21.3583C10.4177 20.5814 9.51411 19.4774 8.98201 18.1862C8.44991 16.8951 8.31325 15.475 8.58936 14.1061C8.86546 12.7372 9.54188 11.4811 10.5329 10.4972C11.5238 9.51325 12.7847 8.84579 14.1555 8.57944C15.5264 8.31308 16.9454 8.45984 18.2328 9.00111C19.5201 9.54239 20.6176 10.4538 21.3862 11.6197C22.1549 12.7856 22.5599 14.1536 22.55 15.55C22.5342 17.4103 21.7848 19.1891 20.4646 20.4999C19.1445 21.8107 17.3604 22.5475 15.5 22.55ZM15.5 9.09001C14.2318 9.08803 12.9915 9.46228 11.9361 10.1654C10.8806 10.8686 10.0575 11.869 9.57082 13.0401C9.08412 14.2112 8.95575 15.5003 9.20195 16.7444C9.44815 17.9885 10.0579 19.1316 10.9539 20.029C11.85 20.9265 12.9921 21.538 14.2358 21.7861C15.4795 22.0342 16.7688 21.9079 17.9407 21.423C19.1125 20.9382 20.1142 20.1166 20.819 19.0623C21.5238 18.0079 21.9 16.7682 21.9 15.5C21.9 13.8017 21.226 12.1728 20.0261 10.971C18.8261 9.76917 17.1983 9.09266 15.5 9.09001ZM15.5 24.24C13.7714 24.24 12.0816 23.7274 10.6443 22.7671C9.20703 21.8067 8.08682 20.4417 7.42531 18.8447C6.7638 17.2476 6.59071 15.4903 6.92795 13.7949C7.26518 12.0995 8.09759 10.5422 9.3199 9.3199C10.5422 8.09759 12.0995 7.26518 13.7949 6.92795C15.4903 6.59071 17.2476 6.7638 18.8447 7.42531C20.4417 8.08682 21.8067 9.20705 22.7671 10.6443C23.7274 12.0816 24.24 13.7714 24.24 15.5C24.2347 17.8164 23.3122 20.0364 21.6743 21.6743C20.0364 23.3122 17.8164 24.2347 15.5 24.24ZM15.5 7.47002C13.9178 7.47002 12.371 7.9392 11.0555 8.81825C9.73986 9.6973 8.71448 10.9467 8.10898 12.4085C7.50348 13.8703 7.34505 15.4789 7.65373 17.0307C7.96241 18.5826 8.72433 20.008 9.84315 21.1269C10.962 22.2457 12.3874 23.0076 13.9393 23.3163C15.4911 23.625 17.0997 23.4666 18.5615 22.8611C20.0233 22.2556 21.2727 21.2302 22.1518 19.9146C23.0308 18.599 23.5 17.0523 23.5 15.47C23.5 13.3483 22.6572 11.3134 21.1569 9.81316C19.6566 8.31287 17.6217 7.47002 15.5 7.47002ZM15.5 25.93C13.4372 25.93 11.4206 25.3183 9.70541 24.1722C7.99021 23.0262 6.65336 21.3972 5.86394 19.4914C5.07452 17.5856 4.86797 15.4884 5.27042 13.4652C5.67286 11.442 6.66622 9.58356 8.12488 8.12489C9.58354 6.66623 11.442 5.67286 13.4652 5.27042C15.4884 4.86797 17.5856 5.07453 19.4914 5.86395C21.3972 6.65337 23.0262 7.99021 24.1722 9.70541C25.3183 11.4206 25.93 13.4372 25.93 15.5C25.9353 16.8735 25.6694 18.2346 25.1478 19.5052C24.6261 20.7758 23.8588 21.931 22.8899 22.9045C21.921 23.8781 20.7695 24.6509 19.5014 25.1786C18.2333 25.7064 16.8735 25.9787 15.5 25.98V25.93ZM15.5 5.85001C13.591 5.84803 11.7243 6.41231 10.136 7.47147C8.54778 8.53062 7.30936 10.0371 6.57744 11.8002C5.84552 13.5633 5.653 15.5039 6.02422 17.3765C6.39543 19.2491 7.31371 20.9695 8.66289 22.3201C10.0121 23.6706 11.7315 24.5907 13.6037 24.9639C15.4759 25.337 17.4167 25.1465 19.1806 24.4164C20.9445 23.6863 22.4522 22.4495 23.513 20.8623C24.5738 19.2752 25.14 17.409 25.14 15.5C25.1374 12.9432 24.1212 10.4917 22.3142 8.68288C20.5072 6.87401 18.0568 5.8553 15.5 5.85001ZM15.5 27.62C13.1029 27.62 10.7596 26.9092 8.76649 25.5774C6.77337 24.2457 5.21992 22.3528 4.30258 20.1381C3.38525 17.9235 3.14523 15.4866 3.61288 13.1355C4.08054 10.7845 5.23486 8.62488 6.92987 6.92987C8.62488 5.23486 10.7845 4.08055 13.1355 3.6129C15.4866 3.14525 17.9235 3.38526 20.1381 4.3026C22.3528 5.21993 24.2457 6.77337 25.5774 8.76649C26.9092 10.7596 27.62 13.1029 27.62 15.5C27.6174 18.7136 26.3396 21.7948 24.0672 24.0672C21.7948 26.3396 18.7136 27.6174 15.5 27.62ZM15.5 4.23001C13.2706 4.22803 11.0907 4.88732 9.23601 6.12448C7.38135 7.36164 5.9353 9.12109 5.08076 11.1802C4.22623 13.2394 4.00161 15.5057 4.43533 17.6925C4.86906 19.8794 5.94164 21.8884 7.51738 23.4656C9.09312 25.0427 11.1012 26.1171 13.2877 26.5527C15.4741 26.9884 17.7406 26.7658 19.8005 25.9131C21.8604 25.0604 23.6212 23.6159 24.86 21.7623C26.0988 19.9088 26.76 17.7294 26.76 15.5C26.7547 12.5144 25.567 9.65239 23.4568 7.54028C21.3466 5.42818 18.4856 4.23794 15.5 4.23001ZM15.5 29.31C12.7682 29.312 10.0972 28.5037 7.82486 26.9875C5.5525 25.4712 3.78088 23.3151 2.7341 20.7918C1.68732 18.2685 1.41241 15.4915 1.94414 12.812C2.47587 10.1324 3.79036 7.67077 5.72133 5.7384C7.65229 3.80604 10.113 2.48977 12.7921 1.9561C15.4713 1.42243 18.2485 1.69533 20.7726 2.74028C23.2966 3.78523 25.454 5.55529 26.9719 7.82655C28.4898 10.0978 29.3 12.7682 29.3 15.5C29.2947 19.1593 27.8394 22.6673 25.2529 25.2558C22.6663 27.8442 19.1593 29.3021 15.5 29.31ZM15.5 2.62001C12.9526 2.62001 10.4624 3.37541 8.34427 4.79068C6.22616 6.20595 4.57529 8.21753 3.60043 10.571C2.62558 12.9246 2.37052 15.5143 2.86749 18.0128C3.36447 20.5112 4.59117 22.8062 6.39247 24.6075C8.19377 26.4088 10.4888 27.6355 12.9872 28.1325C15.4857 28.6295 18.0755 28.3744 20.429 27.3996C22.7825 26.4247 24.7941 24.7739 26.2093 22.6558C27.6246 20.5377 28.38 18.0474 28.38 15.5C28.3774 12.0848 27.0195 8.8103 24.6046 6.3954C22.1897 3.98051 18.9152 2.62266 15.5 2.62001ZM15.5 31C12.4344 31 9.43763 30.0909 6.88867 28.3878C4.33971 26.6846 2.35303 24.2639 1.17987 21.4316C0.00671232 18.5994 -0.300235 15.4828 0.297836 12.4761C0.895907 9.4694 2.37214 6.70757 4.53986 4.53986C6.70757 2.37214 9.4694 0.895907 12.4761 0.297836C15.4828 -0.300235 18.5993 0.00671232 21.4316 1.17987C24.2638 2.35303 26.6846 4.33971 28.3878 6.88867C30.0909 9.43763 31 12.4344 31 15.5C30.9894 19.6058 29.3524 23.5401 26.4473 26.4414C23.5422 29.3428 19.6058 30.9747 15.5 30.98V31ZM15.5 1.00002C12.6322 1.00002 9.82876 1.85041 7.44424 3.4437C5.05973 5.03698 3.20123 7.30157 2.10376 9.9511C1.00629 12.6006 0.71914 15.5161 1.27863 18.3288C1.83811 21.1416 3.2191 23.7252 5.24696 25.7531C7.27483 27.7809 9.85848 29.1619 12.6712 29.7214C15.4839 30.2809 18.3994 29.9937 21.0489 28.8963C23.6984 27.7988 25.963 25.9403 27.5563 23.5558C29.1496 21.1713 30 18.3678 30 15.5C30.0013 13.5945 29.6273 11.7075 28.8993 9.94652C28.1713 8.18558 27.1037 6.58528 25.7572 5.23697C24.4108 3.88866 22.8119 2.81876 21.052 2.08835C19.2921 1.35794 17.4055 0.981324 15.5 0.980011V1.00002Z" fill="white"/>
</g>
<g clip-path="url(#clip1_54:548)">
<path d="M55.3142 24.2578L47.3543 13.2953L53.7463 5.67372C54.1431 5.28376 54.6022 4.96349 55.1045 4.72623C55.7224 4.43644 56.3971 4.28967 57.0789 4.29674H57.2084V4H49.8582V4.29674H50.1793C50.6109 4.29674 50.9104 4.45813 51.0779 4.7809C51.2436 5.09456 51.2073 5.43164 50.9704 5.78044L43.3121 15.936C43.8248 16.6449 44.2793 17.2791 44.6755 17.8388C45.0717 18.3984 45.4998 18.9954 45.9598 19.6296C46.4199 20.2639 46.8636 20.8821 47.2908 21.4843C47.7181 22.0864 48.0927 22.6027 48.4146 23.033C48.7344 23.4625 48.9481 23.7541 49.0555 23.9037C49.5361 24.5631 50.1549 25.1083 50.8681 25.5007C51.5183 25.8605 52.2157 26.1264 52.9397 26.2907C53.5463 26.4319 54.1641 26.519 54.786 26.551C55.3306 26.5727 55.719 26.5835 55.9512 26.5835H58.5834V26.2608C57.957 26.2515 57.3455 26.0672 56.8174 25.7284C56.2365 25.3281 55.7281 24.8306 55.3142 24.2578Z" fill="white"/>
<path d="M44.3388 26.2582C44.0735 26.2619 43.8103 26.2109 43.5653 26.1084C43.3204 26.0058 43.0989 25.854 42.9146 25.6621C42.5282 25.2853 42.3037 24.7714 42.2893 24.2304V6.3557C42.3037 5.81471 42.5282 5.30086 42.9146 4.92406C43.0988 4.73194 43.3202 4.57981 43.5652 4.47706C43.8101 4.37432 44.0734 4.32313 44.3388 4.32667H44.7557V4H35V4.32277H35.4182C35.6836 4.31923 35.9469 4.37041 36.1919 4.47316C36.4368 4.57591 36.6582 4.72804 36.8424 4.92016C37.2279 5.2976 37.4522 5.81105 37.4677 6.3518V24.2265C37.4522 24.7673 37.2279 25.2807 36.8424 25.6582C36.6581 25.85 36.4366 26.0019 36.1917 26.1045C35.9468 26.207 35.6835 26.258 35.4182 26.2542H35V26.577H44.7557V26.2542H44.3388V26.2582Z" fill="white"/>
<path d="M78.2256 25.4031C77.8165 24.988 77.4412 24.5406 77.1031 24.0652C76.738 23.5446 76.3901 23.0444 76.0596 22.5646C75.729 22.0848 75.4562 21.6548 75.2413 21.2748C75.0281 20.8991 74.8783 20.6249 74.792 20.4522C74.405 19.8799 73.9584 19.3507 73.4598 18.8735C72.9648 18.3596 72.3542 17.9726 71.6795 17.7451C72.7265 17.5716 73.5767 17.2167 74.2301 16.6805C74.862 16.1703 75.3584 15.5108 75.675 14.7608C75.9777 14.0526 76.1358 13.2905 76.1398 12.5196C76.1398 11.5088 75.9417 10.6646 75.5455 9.98693C75.1628 9.32075 74.6162 8.76458 73.9582 8.37178C73.2615 7.96074 72.5028 7.66665 71.7119 7.50108C70.8684 7.31688 70.0076 7.22481 69.1444 7.22646H59.2605V7.55053H59.6774C60.1116 7.54746 60.5298 7.71514 60.8427 8.01777C61.1143 8.27268 61.2919 8.61268 61.3463 8.98218V24.7914C61.286 25.1583 61.112 25.4968 60.8492 25.7584C60.693 25.9199 60.5056 26.0476 60.2985 26.1335C60.0915 26.2195 59.8691 26.2619 59.6451 26.2582H59.2567V26.581H68.0815V26.2582H67.7604C67.3192 26.2541 66.8934 26.0943 66.5576 25.8066C66.3718 25.6566 66.224 25.4644 66.1263 25.2459C66.0286 25.0273 65.9839 24.7886 65.9957 24.5493V8.55138C66.2355 8.573 66.4765 8.57735 66.7168 8.5644C67.0483 8.55399 67.4173 8.5644 67.8251 8.58132C68.1572 8.58738 68.4872 8.63459 68.8078 8.72188C69.2036 8.83095 69.5779 9.007 69.9148 9.24248C70.307 9.52452 70.6215 9.90204 70.8289 10.3396C71.0749 10.8221 71.2195 11.4615 71.2626 12.258C71.2843 12.5269 71.2787 12.7973 71.2458 13.065C71.2242 13.2506 71.1865 13.4339 71.1331 13.6129C70.9605 14.5161 70.6934 15.199 70.3317 15.6614C70.0253 16.0804 69.6081 16.4046 69.1276 16.5972C68.7017 16.7563 68.251 16.8383 67.7966 16.8393H66.9939V17.1295C67.2934 17.1295 67.6197 17.2853 67.9727 17.5968C68.3258 17.9083 68.6421 18.4085 68.9218 19.0974C69.0114 19.4274 69.1243 19.7506 69.2597 20.0644C69.4194 20.4522 69.6062 20.8501 69.8203 21.2579C70.0339 21.6678 70.2488 22.07 70.4677 22.4683C70.6522 22.8181 70.8558 23.1574 71.0775 23.4847C71.5038 24.2043 72.0525 24.843 72.6985 25.3719C73.3118 25.8459 74.0255 26.1714 74.7843 26.3233C75.7511 26.5112 76.7347 26.5984 77.7194 26.5836H80.4163V26.2608C80.0118 26.2686 79.6093 26.2034 79.2277 26.0682C78.8518 25.9181 78.5106 25.6917 78.2256 25.4031Z" fill="white"/>
<path d="M98.3831 9.51698C97.3321 8.60885 96.1097 7.92317 94.789 7.50096C91.7665 6.57634 88.5387 6.57634 85.5162 7.50096C84.1953 7.92288 82.9728 8.60859 81.922 9.51698C80.921 10.3914 80.1308 11.4831 79.611 12.7095C79.0767 13.9581 78.8091 15.3668 78.8082 16.9355C78.8082 18.4843 79.0758 19.8769 79.611 21.1133C80.1338 22.3336 80.9237 23.4195 81.922 24.2902C82.9728 25.1986 84.1953 25.8843 85.5162 26.3062C88.5387 27.2309 91.7665 27.2309 94.789 26.3062C96.1097 25.884 97.3321 25.1984 98.3831 24.2902C99.3844 23.4177 100.18 22.3326 100.714 21.1133C101.26 19.8769 101.533 18.4843 101.532 16.9355C101.532 15.3659 101.259 13.9572 100.714 12.7095C100.183 11.484 99.3871 10.3931 98.3831 9.51698ZM95.8002 21.6131C95.2754 22.925 94.5266 23.941 93.5538 24.6612C92.5633 25.3877 91.363 25.7676 90.137 25.7427C88.927 25.7652 87.7435 25.385 86.7708 24.6612C85.8084 23.9419 85.0596 22.9258 84.5244 21.6131C83.9893 20.3003 83.7221 18.7411 83.723 16.9355C83.723 15.1082 83.9901 13.533 84.5244 12.2098C85.0587 10.8866 85.8075 9.86534 86.7708 9.14605C87.7435 8.42222 88.927 8.04197 90.137 8.06451C91.363 8.03961 92.5633 8.41954 93.5538 9.14605C94.5275 9.86621 95.2762 10.8874 95.8002 12.2098C96.3241 13.5321 96.5861 15.1073 96.5861 16.9355C96.5861 18.742 96.3241 20.3012 95.8002 21.6131Z" fill="white"/>
<path d="M123.475 7.22636H116.864V7.55043H117.41C117.867 7.53752 118.311 7.70529 118.646 8.01766C118.807 8.16755 118.937 8.34839 119.028 8.54955C119.119 8.75072 119.169 8.96813 119.175 9.18901V19.7845L104.445 6.76953H104.156C104.358 7.98485 104.466 9.21415 104.477 10.4463V24.613C104.482 24.8355 104.438 25.0562 104.349 25.2597C104.259 25.4632 104.126 25.6445 103.96 25.7909C103.617 26.1025 103.169 26.2698 102.708 26.2581H102.19V26.5809H111.175V26.2581H110.63C110.179 26.2662 109.742 26.0988 109.41 25.7909C109.244 25.643 109.109 25.462 109.015 25.2593C108.921 25.0565 108.87 24.8365 108.865 24.613V13.9629L123.603 27H123.892C123.784 26.3761 123.704 25.7796 123.651 25.2104C123.598 24.6412 123.572 23.9796 123.571 23.2256V9.19421C123.567 8.97176 123.613 8.75132 123.705 8.54877C123.796 8.34622 123.931 8.16661 124.1 8.02287C124.438 7.71444 124.88 7.54572 125.337 7.55043H125.882V7.22636H123.475Z" fill="white"/>
<path d="M146.527 9.51705C145.476 8.60919 144.254 7.92354 142.933 7.50104C139.91 6.57615 136.682 6.57615 133.659 7.50104C132.338 7.92325 131.116 8.60893 130.065 9.51705C129.064 10.3915 128.274 11.4832 127.754 12.7096C127.219 13.9582 126.952 15.3668 126.952 16.9356C126.952 18.4843 127.22 19.8769 127.754 21.1134C128.277 22.3336 129.067 23.4196 130.065 24.2903C131.116 25.1983 132.338 25.884 133.658 26.3063C136.681 27.2312 139.909 27.2312 142.932 26.3063C144.252 25.8838 145.475 25.1982 146.526 24.2903C147.527 23.4171 148.322 22.3322 148.857 21.1134C149.402 19.8769 149.675 18.4843 149.675 16.9356C149.675 15.366 149.402 13.9573 148.857 12.7096C148.326 11.4847 147.53 10.3941 146.527 9.51705ZM143.938 21.6131C143.413 22.925 142.664 23.9411 141.692 24.6612C140.701 25.3879 139.5 25.7679 138.273 25.7428C137.063 25.7651 135.88 25.3849 134.907 24.6612C133.945 23.9419 133.196 22.9259 132.662 21.6131C132.128 20.3004 131.86 18.7412 131.859 16.9356C131.859 15.1083 132.127 13.533 132.662 12.2098C133.197 10.8867 133.946 9.86542 134.907 9.14613C135.88 8.42247 137.063 8.04225 138.273 8.06458C139.5 8.0395 140.701 8.41943 141.692 9.14613C142.663 9.86629 143.412 10.8875 143.938 12.2098C144.464 13.5322 144.726 15.1074 144.724 16.9356C144.728 18.742 144.468 20.3012 143.944 21.6131H143.938Z" fill="white"/>
<path d="M165.347 18.1941C164.867 17.3875 164.164 16.7376 163.325 16.3225L158.287 13.1989C157.881 12.9629 157.512 12.7265 157.18 12.4896C156.866 12.2744 156.601 11.9939 156.404 11.6671C156.22 11.3503 156.147 10.9813 156.195 10.6181C156.21 10.2581 156.309 9.90678 156.485 9.59281C156.661 9.27884 156.908 9.01113 157.206 8.81159C157.836 8.35954 158.665 8.13395 159.692 8.13481C160.976 8.13481 161.961 8.42505 162.645 9.00551C163.33 9.58598 163.672 10.3708 163.672 11.3599H163.961L164.384 7.42029H164.366L164.384 7.10403H162.622C162.379 7.0741 162.122 7.04807 161.845 7.02334C161.245 6.97041 160.641 6.92182 160.033 6.87757C159.424 6.83332 158.906 6.81206 158.479 6.8138C157.496 6.79538 156.521 6.9935 155.623 7.39426C154.815 7.75875 154.121 8.33844 153.617 9.07059C153.095 9.86005 152.78 10.7701 152.703 11.7152C152.565 12.7569 152.751 13.8159 153.234 14.7477C153.715 15.6735 154.492 16.4154 155.565 16.9733L160.122 19.8769C160.978 20.3289 161.593 20.7858 161.967 21.2474C162.332 21.685 162.53 22.2383 162.528 22.8092C162.528 23.5831 162.218 24.2608 161.598 24.8421C160.978 25.4234 160.048 25.7137 158.807 25.7128C157.672 25.7128 156.699 25.4707 155.886 24.9866C155.096 24.528 154.456 23.8501 154.041 23.0343C153.622 22.2076 153.439 21.2807 153.511 20.3558H153.252C152.964 20.8329 152.746 21.3493 152.605 21.889C152.436 22.4877 152.339 23.1047 152.316 23.7267C152.283 24.2573 152.359 24.789 152.54 25.2885C152.911 25.6605 153.351 25.9562 153.835 26.1592C154.488 26.4431 155.172 26.6488 155.873 26.7722C156.72 26.9271 157.579 27.0025 158.44 26.9974C159.937 26.9974 161.236 26.7661 162.339 26.3037C163.377 25.8913 164.278 25.1925 164.938 24.2877C165.581 23.3706 165.944 22.2851 165.982 21.1641C166.051 20.0014 165.839 19.0114 165.347 18.1941Z" fill="white"/>
</g>
<defs>
<clipPath id="clip0_54:548">
<rect width="31" height="31" fill="white"/>
</clipPath>
<clipPath id="clip1_54:548">
<rect width="131" height="23" fill="white" transform="translate(35 4)"/>
</clipPath>
</defs>
</svg>
