<svg class="h-6 w-auto hidden sm:block" xmlns="http://www.w3.org/2000/svg" viewBox="446 1139.12 1659.82 272.6"><g fill="#3BB69D"><path shape-rendering="geometricPrecision" d="M598.44,1205.79h36.06l23.58,92.54l26.21-92.54h28.99l26.07,92.25l23.85-92.25h36.06l-42.86,147.68h-30.37 l-27.32-96.83l-27.18,96.83h-30.51L598.44,1205.79z"></path><path shape-rendering="geometricPrecision" d="M954.19,1205.8h37.25v11.83c10.35-12.71,26.76-17.89,42.13-17.89c40.95,0,63.27,36.07,63.27,76.87 c0,41.24-22.32,76.87-63.86,76.87c-15.82,0-31.19-5.03-41.54-17.74v75.98h-37.25V1205.8z M1060.48,1276.62 c0-24.54-11.09-43.61-35.92-43.61c-24.84,0-36.37,18.77-36.37,43.61c0,24.84,11.53,44.2,36.37,44.2 C1049.39,1320.82,1060.48,1301.16,1060.48,1276.62z"></path><path shape-rendering="geometricPrecision" d="M867.12,1199.73c-29.12,0-47.89,13.01-62.08,32.37l27.67,19.92c6.36-10.77,17.74-20.8,34.71-20.8 c23.5,0,30.89,9.31,31.63,31.19H858.1c-33.11,0-58.84,10.64-58.84,42.72c0,30.9,23.36,48.34,53.66,48.34 c16.85,0,36.51-7.39,46.12-22.62v22.62h36.07v-92.54C935.11,1224.86,907.32,1199.73,867.12,1199.73z M860.17,1323.02 c-16.11,0-23.95-6.95-23.95-16.7c0-9.31,7.54-17.89,23.95-17.89h38.14h0.73C896.82,1305.88,882.34,1323.02,860.17,1323.02z"></path><path shape-rendering="geometricPrecision" d="M497.32,1194.86c0-13.3,11.53-22.32,26.31-22.32c14.04,0,26.46,8.13,33.7,22.32l35.27-9.62 c-11.48-32.45-39.82-46.12-67.64-46.12c-35.18,0-65.19,20.7-65.19,57.65c0,68,101.12,53.51,101.12,96.83 c0,14.78-12.12,26.61-34.44,26.61c-22.17,0-40.65-11.53-43.31-37.55L446,1292.79c6.94,40.65,43.1,60.69,79.85,60.69 c39.91,0,72.58-23.8,72.58-63.27C598.44,1220.87,497.32,1234.18,497.32,1194.86z"></path></g><g fill="#ABABAA"><path shape-rendering="geometricPrecision" d="M1986.27,1274.27c0-32.97-16.7-74.51-68.44-74.51c-49.97,0-72.44,39.03-72.44,77.46 c0,38.96,23.01,74.78,71.77,76.21v0.07h50.03l0,0l0,0v-32.77l0,0l0,0h-50.03c-20.9-1.2-32.75-14.09-35.7-32.5l103.48,0.23 C1985.68,1286.39,1986.27,1280.33,1986.27,1274.27z M1881.46,1262.45c3.4-18.48,14.78-32.37,36.07-32.37 c15.67,0,27.79,7.83,31.49,23.06c0.89,2.96,1.18,6.06,1.18,9.31H1881.46z"></path><path shape-rendering="geometricPrecision" d="M1831.08,1261.92c0-30.9-15.23-62.09-53.96-62.09c-14.49,0-31.49,5.77-43.31,20.25v-14.2h-36.07v147.62l0,0 l0,0h36.07v0.05l0,0v-83.8c0-25.72,12.71-36.66,32.97-36.66c18.48,0,28.24,14.04,28.24,33.41v87h0l0,0h36.07l0,0h0V1261.92z"></path><path shape-rendering="geometricPrecision" d="M1678.66,1261.92c0-30.9-15.23-62.09-53.96-62.09c-14.49,0-31.49,5.77-43.31,20.25v-14.2h-36.07v147.62l0,0 l0,0h36.07v0.05l0,0v-83.8c0-25.72,12.71-36.66,32.97-36.66c18.48,0,28.24,14.04,28.24,33.41v87h0l0,0h36.07l0,0h0V1261.92z"></path><path shape-rendering="geometricPrecision" d="M1458.36,1199.77c-29.12,0-47.89,13.01-62.08,32.37l27.67,19.92c6.36-10.77,17.74-20.8,34.71-20.8 c23.5,0,30.89,9.31,31.63,31.19h-40.94c-33.11,0-58.84,10.64-58.84,42.72c0,30.9,23.36,48.34,53.66,48.34 c16.85,0,36.51-7.39,46.12-22.62v22.62h36.07v-92.54C1526.36,1224.9,1498.57,1199.77,1458.36,1199.77z M1451.41,1323.06 c-16.11,0-23.95-6.95-23.95-16.7c0-9.31,7.54-17.89,23.95-17.89h38.14h0.73C1488.07,1305.91,1473.59,1323.06,1451.41,1323.06z"></path><path shape-rendering="geometricPrecision" d="M2089.11,1239.58l16.71-29.23c-7.33-7.22-17.86-10.61-27.92-10.61c-17.11,0-34.38,10.05-40.95,27.94v-21.89 h-36.37v147.71h36.07l-0.01-65.36c0-37.55,18.18-53.22,35.6-53.22c5.96,0,11.61,1.77,16.66,5.03L2089.11,1239.58z"></path><path shape-rendering="geometricPrecision" d="M1351.05,1300.18c-4.52,12.34-15.17,20.66-28.64,20.66c-25.13,0-34.59-21.44-34.59-43.91 c0-22.03,9.76-44.5,34.59-44.5c13.72,0,24.13,8.66,28.63,21.26l29.94-21.55c-12.46-21.8-33.31-32.38-58.57-32.38 c-48.19,0-71.25,38.44-71.25,77.17c0,39.17,23.36,76.58,71.55,76.58c25.07,0,45.58-11.94,57.08-32.64L1351.05,1300.18z"></path></g><g><path shape-rendering="geometricPrecision" fill="#3BB69D" d="M1238.87,1234.35l-44.42-27.04c-24.37-14.83-56.15-7.1-70.99,17.27c-14.83,24.37-7.1,56.15,17.27,70.99 l14.03,8.54c0,0,0.01,0,0.01,0.01c7.33,4.46,16.88,2.14,21.35-5.19c0.5-0.82,0.9-1.68,1.24-2.54c2.63-6.87,0.08-14.84-6.43-18.8 l0,0l-14.04-8.55c-9.71-5.91-12.8-18.58-6.88-28.3s18.58-12.8,28.3-6.88l40.47,24.64l3.95,2.4c7.33,4.46,16.89,2.14,21.35-5.19 C1248.53,1248.37,1246.2,1238.81,1238.87,1234.35z"></path><path shape-rendering="geometricPrecision" fill="#ABABAA" d="M1109.12,1318.89l44.42,27.04c24.37,14.83,56.15,7.1,70.99-17.27c14.83-24.37,7.1-56.15-17.27-70.99 l-14.03-8.54c0,0-0.01,0-0.01-0.01c-7.33-4.46-16.89-2.14-21.35,5.19c-0.5,0.82-0.9,1.68-1.24,2.54 c-2.63,6.87-0.08,14.84,6.43,18.8l0,0l14.04,8.55c9.71,5.91,12.8,18.58,6.88,28.3s-18.58,12.8-28.3,6.88l-40.47-24.64l-3.95-2.4 c-7.33-4.46-16.89-2.14-21.35,5.19C1099.47,1304.88,1101.79,1314.43,1109.12,1318.89z"></path></g></svg>